<svg width="1200" height="900" viewBox="0 0 1200 900" fill="none" xmlns="http://www.w3.org/2000/svg">
  <rect width="1200" height="900" fill="#FFF9E3"/>
  <rect y="640" width="1200" height="260" fill="#F7E4DA"/>
  <circle cx="981" cy="158" r="110" fill="#FAD0D9"/>
  <rect x="148" y="190" width="376" height="280" rx="24" fill="#FFF2EA"/>
  <rect x="184" y="225" width="300" height="210" rx="16" fill="#FFFFFF"/>
  <rect x="692" y="252" width="252" height="306" rx="28" fill="#FED9D2"/>
  <rect x="748" y="170" width="136" height="120" rx="20" fill="#FFF"/>
  <path d="M214 725C214 630.56 290.56 554 385 554H427C521.44 554 598 630.56 598 725V768H214V725Z" fill="#FB9B8F"/>
  <path d="M705 753C705 675.68 767.68 613 845 613H867C944.32 613 1007 675.68 1007 753V787H705V753Z" fill="#F57799"/>
  <rect x="890" y="360" width="92" height="220" rx="42" fill="#D8E6D5"/>
  <circle cx="936" cy="326" r="62" fill="#D8E6D5"/>
  <circle cx="892" cy="345" r="48" fill="#D8E6D5"/>
  <circle cx="985" cy="350" r="44" fill="#D8E6D5"/>
  <rect x="95" y="112" width="154" height="58" rx="29" fill="white"/>
  <text x="128" y="149" fill="#A35B68" font-family="Arial, sans-serif" font-size="26" font-weight="700">Warm space</text>
</svg>
